<svg width="37" height="37" viewBox="0 0 37 37" fill="none" xmlns="http://www.w3.org/2000/svg">
<circle cx="18.168" cy="18.168" r="18.168" fill="#3A7D44"/>
<path d="M18.7765 23.3253H17.9349C15.9258 23.3253 14.3104 21.6556 14.3104 19.5923V9.547C14.3104 7.48365 15.9394 5.81396 17.9349 5.81396H18.7765C20.7856 5.81396 22.4009 7.48365 22.4009 9.547V19.5787C22.4009 21.642 20.772 23.3117 18.7765 23.3117V23.3253ZM20.3647 9.547C20.3647 8.61035 19.6453 7.85016 18.7765 7.85016H17.9349C17.0525 7.85016 16.3466 8.61035 16.3466 9.547V19.5787C16.3466 20.5153 17.0661 21.2755 17.9349 21.2755H18.7765C19.6589 21.2755 20.3647 20.5153 20.3647 19.5787V9.547ZM10.5503 14.1488V19.8909C10.5503 23.7054 13.5638 26.8004 17.3376 26.9904V29.5696C17.3376 30.1262 17.7991 30.5877 18.3557 30.5877C18.9123 30.5877 19.3738 30.1262 19.3738 29.5696V26.9904C23.1476 26.8004 26.1611 23.7054 26.1611 19.8909V14.1488C26.1611 13.5922 25.6996 13.1307 25.143 13.1307C24.5865 13.1307 24.1249 13.5922 24.1249 14.1488V19.8909C24.1213 21.2458 23.5806 22.544 22.6212 23.5008C21.6619 24.4577 20.3622 24.995 19.0073 24.995H17.6905C16.3356 24.995 15.036 24.4577 14.0766 23.5008C13.1173 22.544 12.5765 21.2458 12.5729 19.8909V14.1488C12.5729 13.5922 12.1114 13.1307 11.5548 13.1307C10.9982 13.1307 10.5367 13.5922 10.5367 14.1488H10.5503Z" fill="#F5F5F3"/>
</svg>
