<svg width="200" height="200" viewBox="0 0 200 200" fill="none" xmlns="http://www.w3.org/2000/svg">
<g clip-path="url(#clip0_47_173)">
<circle cx="100" cy="100" r="100" fill="#111827"/>
<path d="M45 52.8C45 46.283 50.3345 40.8813 56.7216 42.1761C60.4297 42.9278 64.0659 44.0362 67.5783 45.4911C74.7365 48.4561 81.2406 52.802 86.7193 58.2807C92.198 63.7594 96.5439 70.2635 99.5089 77.4217C102.474 84.5799 104 92.252 104 100C104 107.748 102.474 115.42 99.5089 122.578C96.5439 129.737 92.198 136.241 86.7193 141.719C81.2406 147.198 74.7365 151.544 67.5783 154.509C64.0659 155.964 60.4297 157.072 56.7216 157.824C50.3345 159.119 45 153.717 45 147.2C45 140.683 50.4245 135.584 56.5827 133.451C57.2439 133.223 57.899 132.974 58.547 132.705C62.8419 130.926 66.7444 128.319 70.0316 125.032C73.3188 121.744 75.9263 117.842 77.7053 113.547C79.4844 109.252 80.4 104.649 80.4 100C80.4 95.3512 79.4844 90.7479 77.7053 86.453C75.9263 82.1581 73.3188 78.2556 70.0316 74.9684C66.7444 71.6812 62.8419 69.0737 58.547 67.2947C57.899 67.0262 57.2439 66.7775 56.5827 66.5485C50.4245 64.4162 45 59.3169 45 52.8Z" fill="#FF6B00"/>
<path d="M154.74 52.8C154.74 46.283 149.405 40.8813 143.018 42.1761C139.31 42.9278 135.674 44.0362 132.162 45.4911C125.003 48.4561 118.499 52.802 113.021 58.2807C107.542 63.7594 103.196 70.2635 100.231 77.4217C97.2661 84.5799 95.74 92.252 95.74 100C95.74 107.748 97.2661 115.42 100.231 122.578C103.196 129.737 107.542 136.241 113.021 141.719C118.499 147.198 125.003 151.544 132.162 154.509C135.674 155.964 139.31 157.072 143.018 157.824C149.405 159.119 154.74 153.717 154.74 147.2C154.74 140.683 149.315 135.584 143.157 133.451C142.496 133.223 141.841 132.974 141.193 132.705C136.898 130.926 132.996 128.319 129.708 125.032C126.421 121.744 123.814 117.842 122.035 113.547C120.256 109.252 119.34 104.649 119.34 100C119.34 95.3512 120.256 90.7479 122.035 86.453C123.814 82.1581 126.421 78.2556 129.708 74.9684C132.996 71.6812 136.898 69.0737 141.193 67.2947C141.841 67.0262 142.496 66.7775 143.157 66.5485C149.315 64.4162 154.74 59.3169 154.74 52.8Z" fill="#00E5FF"/>
<ellipse cx="100.46" cy="100" rx="29.5" ry="29.5" fill="#D9D9D9"/>
</g>
<defs>
<clipPath id="clip0_47_173">
<rect width="200" height="200" fill="white"/>
</clipPath>
</defs>
</svg>
